/* XPM */
static char *backwall1654439032[] = {
/* columns rows colors chars-per-pixel */
"50 50 97 2 ",
"   c #1A1625",
".  c #1F182A",
"X  c #221D25",
"o  c #241E2B",
"O  c #26212B",
"+  c #2A252D",
"@  c #272533",
"#  c #2D2632",
"$  c #2D2A32",
"%  c #322C36",
"&  c #332D3A",
"*  c #392C3E",
"=  c #363336",
"-  c #36333C",
";  c #3A343D",
":  c #3C3A3E",
">  c #40363E",
",  c #363240",
"<  c #3C3642",
"1  c #3E3A43",
"2  c #423C45",
"3  c #443E49",
"4  c #3E4545",
"5  c #3D4749",
"6  c #424246",
"7  c #494347",
"8  c #4A4947",
"9  c #46424B",
"0  c #4A454C",
"q  c #43494D",
"w  c #4D494D",
"e  c #514C4F",
"r  c #51504E",
"t  c #4C4652",
"y  c #4E4A53",
"u  c #524755",
"i  c #524C54",
"p  c #544E59",
"a  c #594F5A",
"s  c #555155",
"d  c #595556",
"f  c #56515B",
"g  c #59545C",
"h  c #5E5A5D",
"j  c #615D5E",
"k  c #5C5661",
"l  c #5E5A63",
"z  c #625C64",
"x  c #635E6A",
"c  c #695F68",
"v  c #656165",
"b  c #696366",
"n  c #66626B",
"m  c #6A646C",
"M  c #666A6D",
"N  c #6D6A6D",
"B  c #716C6E",
"V  c #71706E",
"C  c #6B6572",
"Z  c #6D6B73",
"A  c #6F6B79",
"S  c #726D73",
"D  c #786F75",
"F  c #746E7A",
"G  c #796E7C",
"H  c #6C7173",
"J  c #757275",
"K  c #797476",
"L  c #797977",
"P  c #767379",
"I  c #7A757A",
"U  c #76787C",
"Y  c #7C797C",
"T  c #80767E",
"R  c #817C7E",
"E  c #82817F",
"W  c #7C7781",
"Q  c #7E7A82",
"!  c #827D84",
"~  c #847E89",
"^  c #858185",
"/  c #898487",
"(  c #86828A",
")  c #89848C",
"_  c #8D888E",
"`  c #91878F",
"'  c #8C8691",
"]  c #8E8992",
"[  c #918790",
"{  c #918B95",
"}  c #938E98",
"|  c #959097",
" . c #96939B",
".. c #9B969E",
"X. c #9D97A1",
"o. c #9E98A2",
"O. c #A29CA6",
/* pixels */
"{ ' w S X.{ [ [ [ ] J 9 ' X.] ] ] ' { ~ 2 I O.[ { [ ! 3 ! X.{ { [ ] } m 3 o. .[ [ ' { { Q 9 ) ..` ` ",
"I ~ p Y ~ S Y I K T Y s ] P W I U Q ! Q j ! Y I I W ! p ` Y P P T I I J n ) P Y F ! F Y T p [ I P I ",
"I K i T L L I J L I b d ) K J K K K D S e ! P P I Y S e ~ I P K V I J j j ! K K I I P I D 8 / I K J ",
"Y m w I I L I L K N d d Q U I I I I Y m 0 ! I I S P c 0 R I K I K J B d z R I J K K Y K z e ~ J K L ",
"F M 9 P / S I S S C g e ) P T I P S S b 9 T ! I T K c 3 / I P G I m Z 9 z ' Y Y I I D P h w ) P Q U ",
"y < o q m f 3 0 u u % + c x a u i p u 2 X i m p i p * X d c g 3 0 u i X - z k g u 0 i t % o k c i g ",
"Q C l n C n % p ! C x c k c c 2 < S F x z m z < p I n x x Z g % z I c x c g C c - u F A m b x x - y ",
"( Q ( Q Q ( g ) ~ ! ~ G F W ~ c S { ! ~ ~ ! ~ k m ( ! ~ ! ! ! p } ~ ~ ~ I S I ) k ! ) ! ~ ~ ~ ~ t F ",
"U J J U K J e T I L B D R K K j N R I D I K I i b I K K I I B i / K K S K T J I i Y L J I P P J y Z ",
"Y J J J I B w R R J J T I K K 7 N R D I J K S 8 N I I I D I b d T K I V T L K N 8 L T J K K I M q H ",
"L L Y I P b w ! I I I T I T B 0 b / Z K I T m w S P I Y T I j e ) ! P P Y D I S 9 D T D D Y I m q P ",
"J n d f g 9 + z K N z p u d i + w S b d p s 0 + z Z z d d i 2 $ m m c c s g s y + g S z p z u 1 $ g ",
"k x p + u g u k z p 0 # g z z u t g c f # 9 z 9 u m g 0 % i g y p z g 3 # z z z w p z c u # t l t p ",
"~ ~ ~ u { ~ ~ ~ ~ ' P p } ~ ~ ~ ~ ) ) ~ u ! [ ) ~ ~ ~ ~ u ] ) ) ! ) ~ Z k { ~ ~ ~ ~ ~ ! ~ i { ) ~ ~ ",
"J I Y w ) I I P F I S g ) D I K P P P I s ) P P T D I I e ` P P I J I c z / P I P I D I I e ` K I U ",
"I K b 0 ! T K K I I j p ) I K K I D Y b 8 T I K J I I d i ! I P I D K d z ! P K K I P I z e ! K P Y ",
"K T b e / K J I J K h d ^ K J Y I P I m 8 R K I I L D j d / S P Z U U s h Y J K I K K K b s R I L J ",
"D T m 3 ! L Q I Y J l f / T I P P Y I b 9 / J B J K ! j w ) ! Y U U P s v ) U U I Y D L z 9 / D J J ",
"a a 3 # m S g i g g < & S Z x x p k z 3 + z Z h s g g = % A Z a p k f $ 4 A Z n k p g k 1 & n C g a ",
"a z u u p a @ t Z l u t z k k & , x x p y p n s p d g u u a t # f n l t y l l p & < C z y t k x a a ",
"~ ~ G ! ~ ( g ) ] Q ( ( ^ ( ' z n X.~ ^ ^ Q ( ) ( ( Y P W ) ! u } ] ^ ( ( Q ) ) p W } ( ~ ( ) ^ / ~ ",
"T I D N I U y Q U U U A J U I l A Q P Y P U J J P J Q Z C W P p ( J P P P P J Q i U Y J U P Y J P J ",
"K K T B L H r Q L J U Y J I K e M Q U H Q Y J L U V J Y U J n s ^ K I J H Q J J s U Y L U J J U L K ",
"J D D S M d - L Q L S S B N z : n ^ P Q M S n N M L J J N n s 1 R T I J S H M h = J Q U H J H M M N ",
"y p y 6 y 1 O q y p g t y 0 3 % - p s k q y i q 2 y i y 6 y - $ 9 p p g 0 t t 9 O 4 s g s y s q w : ",
"! ! y n ( Q Q U Q Q M q ~ Q ! ! Q W Q I 0 P _ Q Q Q Q q P ! Q Y W ! Y b y ^ Q Y W Q Q ! A 0 I ) ! I ",
"D / g Y ^ J Y P I I I d _ I Q K U P W Y f ^ Q J J Q Q i ) Q U I Y D I S l _ I I U P P P Q s _ I P Y ",
"P S i J Q Y P U I J b i ! K P I U L J I q Y I Y Q L M w ! I P I Y K G j z ! I I U P Y J Z q / I P I ",
"T B e D L J Z Y K B j d / I D I P J Y N 7 Y I K D K K 0 ! I I K J J N s v / I K U K I L b e ! V J J ",
"J z : Z ^ U J M m b u 0 / I T P I Z J h 2 Q ! Y Y S j & Y / D N D N z 8 i / T I S J Z D a 3 ! ~ Q I ",
"t 2 o 2 k t - 2 u t # o a a u 2 3 3 y 2 . 3 l 9 3 u - + 3 g 9 > 3 u 3 % # g p t 3 3 0 t < # 3 f 9 q ",
"' P I A W S 2 z ~ ! G W c S W u 0 ~ Q P W F W 1 g ) G I F ! C - F ~ W F W b G G 3 g ~ W A W W F < g ",
"R L K L Y Y d / ! I L J B J R N B _ L T J E E f v E L L Y U / s _ L ! K P m T R j T / L ! I T ) y D ",
"J K L J L S s L R K D K L I T r b ! K K L V J r b L H V I U b e ^ K K B L I K I e K J I K L K B y Z ",
"I P L J I Z u W I P J ! T I K 8 x ~ G ! Y P Z y M P Y U P P n f / D K K Y Q K B 8 P ! K K K I b t H ",
"W I U Q F M t ~ ! W W I S D D 0 x ~ S G P W Z 9 M ~ Z W U P x t ~ ! P Y D D P C 7 b / m D I I n 5 A ",
"C l y 9 q 1 o p x k f 3 y p 9 o 2 C z 3 t 3 1 O t Z p u 9 t < o g x k u 3 t t 3 o t c k t 9 t , @ y ",
"C M n # k A x l C C g = c Z C C x m C C % p P z l Z M g & x C c x m C t 1 A A F C x x F z # k W l C ",
"Q Q / s ] ^ Q ~ ~ ~ Q g [ / ! ! ! ~ I / g ) / ! ^ Q ) ! u } ) ! ~ ! ' F l { ~ W ~ Q ~ ~ ~ p ] ~ ! ! ",
"I P J 0 Q Y U U I P N i / S I K I P P I 0 Y T K P P J N y ) D I I I F b k ~ I I W I F I F y ~ P J I ",
"K K B 7 ! I U J P P j r E L J Y I I P B 7 R I K K K T j e ^ I K L J H s j E P H P J L L b 8 E L L U ",
"T I B 8 ^ P I U I U v d ^ U K J D U I N 8 T K I T T K j s _ D I L L L s j E J U J J Y J b r ^ V J J ",
"B D b 3 ! ! P Z S P f y / ^ I Y P F P n 7 I T B S D D j 0 / W F J J P r j ( W U J J Z U j 6 ^ H J J ",
"0 0 ; O u z q y p y & @ l z f w 5 p y 1 X p b p 7 3 u = o a c 3 0 i q @ - v x k y 0 y y : @ g v 0 0 ",
"m B z z m c & y Q M n l C m N 9 < U Z M l Z B m b m B j x c l % n W A l n A C x , 5 W Z x x x A m m ",
"T ! D T ! ^ g ( ' Q Q ^ ! ! ) n M  .! ! ^ Y T ! ~ ! ! D ! Y ! p ' ( Q ~ Q Q Q ' k W ] ~ Q ( Q Q ! ! ",
"D T D B P I y Y U U J P K K K h M Q H J Y U I K K D T B B K K i ( J W U L L P L p W P J P P Q W J J ",
"K D T D L Z q Q Q U U Y I K K s M ! Q J L J K I T I K D I T z p ^ J Q H J U J H r A E L J L H U U U ",
"D N B b b s - C ! F Z M m z l - k W U H M M n v b B H M v b t - P Q J V N b v h & x ~ J Z M M b n h ",
"1 9 0 ; ; =   & 2 2 q q > ; 2 + o 1 q 5 5 4 1 1 % : 6 4 > > % o * 2 2 4 4 : : ; . & 1 q 5 5 4 1 : $ "
};
