/* XPM */
static char *door1654446810[] = {
/* columns rows colors chars-per-pixel */
"32 50 73 1 ",
"  c None",
". c #35332D",
"X c #272B34",
"o c #2A2D32",
"O c #343435",
"+ c #383734",
"@ c #453B27",
"# c #4C3F23",
"$ c #423A2A",
"% c #5A461D",
"& c #5E481C",
"* c #77540C",
"= c #79560E",
"- c #7C580F",
"; c #6A4C13",
": c #654C1A",
"> c #694E18",
", c #6E5115",
"< c #6B5018",
"1 c #715314",
"2 c #7A5711",
"3 c #7E5911",
"4 c #72551C",
"5 c #4F4122",
"6 c #554423",
"7 c #594621",
"8 c #574D3A",
"9 c #584E3B",
"0 c #695224",
"q c gray28",
"w c #4D4D4D",
"e c #4D4F52",
"r c #555555",
"t c #5C5C5C",
"y c #625B4C",
"u c #5F605F",
"i c #63615C",
"p c #646463",
"a c #696763",
"s c #686867",
"d c #6C6C6C",
"f c #737373",
"g c #7B7B7B",
"h c #855A05",
"j c #8B5D01",
"k c #875E0C",
"l c #895F0B",
"z c #805A10",
"x c #8F6001",
"c c #8F6209",
"v c #966301",
"b c #996601",
"n c #9E6A01",
"m c #A36D01",
"M c #A77000",
"N c #A97000",
"B c #7F7F80",
"V c #848484",
"C c #878788",
"Z c #8B8B8B",
"A c #8F8F90",
"S c #949494",
"D c #979798",
"F c #9C9C9C",
"G c #A4A4A4",
"H c #A7A7A8",
"J c #ACACAC",
"K c #B3B3B3",
"L c #BCBCBC",
"P c #C2C2C3",
"I c #CDCDCD",
"U c #D5D5D5",
"Y c #D8D8D8",
/* pixels */
"            wwwqwqrw            ",
"          qpfpVVVVtfpq          ",
"        qrSKZdJHPLdZDZtq        ",
"      wrSGZYVdLLPPdZHgZZrw      ",
"     wrKJKZdtrddddrtsVHISrw     ",
"    rZSgGDt922==*=2=9uFHfFJr    ",
"   rCIJZiy=kvjmnnmjvl=yiZHJZr   ",
"  rAfDay-hnmvvmmmmvbmnh-yaZVKr  ",
" rGJSi-hnjmmbxmmmmxbmmjbh2iDGVr ",
"wVgpr2nmnjmmbxmmmmxbmmjnmn2rtgVw",
"wVKGp*mmmjmmbxmmmMxbmmjmmn=pGJZw",
"wfLLp=nmnjmmbvmmmmxbmmjnmm=sKLGq",
"wtgZt2nmnjmmbjmmmmxbmmjnmn=sHZfw",
"wCVsr2mmnjmmbvmmmMxbmmjnmn=rddtw",
"wVPKs=mmnjmmbvmmmMxbmmjnmm=aJJCw",
"wsSCr2mmnjmmbjmmmmxbmmjnmm=aJFsw",
"wgBfr=mmnjmmbvmmmmxbMmjmMn7rggpw",
"wDIKs=nmnjmMbcmmmmxbmmj::%OrgDFq",
"wBLKa=mmnjmmbxmmmmxbmmhOXXOsKISw",
"wVBsr=nmnjnmbxMmmMxbmnj32,OrVLVw",
"etFDt2nMnjmmbxmmmMxbMmjmMn:tVstw",
"wfJId=nmnjnMbxmmmmxbmmjnmm=sGAfw",
"wVHJs2nmnjmmbxmmmMcvmmjnmm=pHJVw",
"erpSp2nMnjmMbxMmmmxvMnjnmn=sGGVw",
"wgLBe2mmbhbmbxmmmmxbmmjnmm-pZire",
"wVKGi=mb#.7mbxMmmmxbmmjnmm2efHVw",
"wgDGp=mmc@mmbxmmmmxbmmjnmn=pGLGq",
"wtaVp=mmk+cMbxmmmMjbmmjnmm=tSSgw",
"wVJfe=nk5$7cbxmmmmvbmmjnmm2rapte",
"wCJJa=b$bvl@bvmmmmjbmmjnmm=pHJVw",
"wfCCt=b:1;<<bxMmmmvbmmjnmm=sLFdw",
"widfr2nm&5<Mbxmmmmjbmmjmmn-pFgpe",
"wVJJp=nMmjmmbxmmmmxbmmjnmn2rfCVw",
"wSKHs=nmmjmmbvmmmmxnmmjnmm2pJKDq",
"wJGdr=nMnjmmvxmmmMxbmmjmmm2rVLDq",
"wdVVt=nmnjmmbxMmmmxbmmjmMb6tgdpw",
"wdFJp=nMnjnmbxMmmmxbmmj&6#OpFCfw",
"wCJPd=nmnjmMbxmmmmxbmmh.oo+pHLFw",
"euiLf=nmnjmmbxMmmmxbmmjzl2+efPHq",
"wfDgr2mMnjmmbxmmmmxbmmjmNm,pCsuw",
"wVJGt=mmncmmbxmmmmvbmmjnmm=pGDgw",
"wgPJu=nmnjmmbxMmmmxbmmjnmm=pJJBw",
"wrpur2mmnjmmbxmmmmxbmmjmmm=iJGrw",
"wVGGp=mmnjmmbxmmmmxbmmjmmn-riBZw",
"wgGHs=nmnjmmbxMmmmxbmmjnmm*pHPFq",
"waCAt=mmnjmMbxMmmmxbmmjmmm2rHUVw",
"wFApr=bnbjbnvxbbmbxvbbjbnb2rBHdw",
"wSKJs0444444444444444444440aFffw",
"wVSVteeereeeeerweewweerwrwwiVSVw",
"wwqwweewewwweeweeerweeewweeewwww"
};
