/* XPM */
static char *_2f419a44e474630d11f660ae5f33d68LUgpcqtj9p7R31Rb[] = {
/* columns rows colors chars-per-pixel */
"48 50 250 2 ",
"   c None",
".  c red",
"X  c #FF0100",
"o  c #FF0001",
"O  c #FF0101",
"+  c #FF0201",
"@  c #FF0002",
"#  c #FF0102",
"$  c #FF0202",
"%  c #FF0203",
"&  c #FF0303",
"*  c #FF0401",
"=  c #FF0402",
"-  c #FF0502",
";  c #FF0602",
":  c #FF0702",
">  c #FF0603",
",  c #FF0703",
"<  c #FF0104",
"1  c #FF0304",
"2  c #FF0205",
"3  c #FF0305",
"4  c #FF0006",
"5  c #FF0106",
"6  c #FF0306",
"7  c #FF0307",
"8  c #FF0404",
"9  c #FF0504",
"0  c #FF0505",
"q  c #FF0705",
"w  c #FF0507",
"e  c #FF0606",
"r  c #FF0707",
"t  c #FF0802",
"y  c #FF0803",
"u  c #FF0904",
"i  c #FF0B04",
"p  c #FF0806",
"a  c #FF0A07",
"s  c #FF0D05",
"d  c #FF0E05",
"f  c #FF0E06",
"g  c #FF0408",
"h  c #FF0608",
"j  c #FF0708",
"k  c #FF0808",
"l  c #FF0909",
"z  c #FF090A",
"x  c #FF0A0A",
"c  c #FF0B0B",
"v  c #FF0A0C",
"b  c #FF0C0C",
"n  c #FF0D0D",
"m  c #FF1005",
"M  c #FF1106",
"N  c #FF1206",
"B  c #FF1306",
"V  c #FF1207",
"C  c #FF1507",
"Z  c #FF1607",
"A  c #FF1308",
"S  c #FF1808",
"D  c #FF1A09",
"F  c #FF1A0B",
"G  c #FF1D0B",
"H  c #FF1E0A",
"J  c #FF1E0B",
"K  c #FF1F0B",
"L  c #FF2105",
"P  c #FF200B",
"I  c #FF220B",
"U  c #FF230B",
"Y  c #FF200C",
"T  c #FF210C",
"R  c #FF240C",
"E  c #FF240D",
"W  c #FF250D",
"Q  c #FF260D",
"!  c #FF270D",
"~  c #FF280E",
"^  c #FF290F",
"/  c #FF2D0F",
"(  c #FF340B",
")  c #FF2810",
"_  c #FF2C11",
"`  c #FF2F10",
"'  c #FF3010",
"]  c #FF3413",
"[  c #FF3514",
"{  c #FF3415",
"}  c #FF3714",
"|  c #FE3B13",
" . c #FF3E15",
".. c #FF3F16",
"X. c #FF3F18",
"o. c #FF4015",
"O. c #FF4116",
"+. c #FF4415",
"@. c #FF4417",
"#. c #FF4617",
"$. c #FF4618",
"%. c #FF4718",
"&. c #FF4818",
"*. c #FF4B19",
"=. c #FF4A1A",
"-. c #FF4C1A",
";. c #FF4D1A",
":. c #FF4E1A",
">. c #FF4E1C",
",. c #FF4F1C",
"<. c #FD5013",
"1. c #FC5D12",
"2. c #FF541C",
"3. c #FF551C",
"4. c #FF561D",
"5. c #FF551E",
"6. c #FF5F1D",
"7. c #FF5C1E",
"8. c #FE6F1F",
"9. c #FF5C20",
"0. c #FF6020",
"q. c #FF6120",
"w. c #FF6422",
"e. c #FF6522",
"r. c #FF6724",
"t. c #FF6824",
"y. c #FF6B25",
"u. c #FF6C24",
"i. c #FF6D24",
"p. c #FF6E25",
"a. c #FF7124",
"s. c #FF7026",
"d. c #FF7326",
"f. c #FE7625",
"g. c #FE7A24",
"h. c #FF7827",
"j. c #FF7329",
"k. c #FF7629",
"l. c #FF7828",
"z. c #FF7C2B",
"x. c #FF7E2C",
"c. c #FFB71F",
"v. c #FF8220",
"b. c #FD8823",
"n. c #FF862B",
"m. c #FF802C",
"M. c #FF822D",
"N. c #FF832E",
"B. c #FF842C",
"V. c #FF842D",
"C. c #FF852D",
"Z. c #FF862E",
"A. c #FF872F",
"S. c #FE8928",
"D. c #FE882B",
"F. c #FF8A2E",
"G. c #FF8A2F",
"H. c #FF8B2F",
"J. c #FF8D2E",
"K. c #FF8C2F",
"L. c #FF8D2F",
"P. c #FC9F27",
"I. c #FD9028",
"U. c #FE902A",
"Y. c #FD9529",
"T. c #FE932C",
"R. c #FF902F",
"E. c #FF922E",
"W. c #FD9F2A",
"Q. c #FE992C",
"!. c #FE982D",
"~. c #FE9C2D",
"^. c #FE9D2E",
"/. c #FE9C2F",
"(. c #FE9F2F",
"). c #FF8B30",
"_. c #FF8D30",
"`. c #FF8F31",
"'. c #FE9830",
"]. c #FE9E30",
"[. c #FDAB23",
"{. c #FDA42E",
"}. c #FFA42E",
"|. c #FCAD2B",
" X c #FDAA2F",
".X c #FDAC2E",
"XX c #FDAD2F",
"oX c #FCB22B",
"OX c #FCB22D",
"+X c #FCB42D",
"@X c #FCB42E",
"#X c #FCB52E",
"$X c #FDB42F",
"%X c #FCB62E",
"&X c #FCB72E",
"*X c #FCB92D",
"=X c #FCBB2E",
"-X c #FEA030",
";X c #FCC12C",
":X c #FCC02D",
">X c #FCC32E",
",X c #FBC52E",
"<X c #FCC62D",
"1X c #FBC82D",
"2X c #FBCA2C",
"3X c #FBCA2D",
"4X c #FBCA2E",
"5X c #FBCF2C",
"6X c #FBD12E",
"7X c #FAD52C",
"8X c #FAD72C",
"9X c #FBD42E",
"0X c #FBD72E",
"qX c #FDD92B",
"wX c #FAD82C",
"eX c #FADB2C",
"rX c #FADB2D",
"tX c #FADC2D",
"yX c #FBDE2E",
"uX c #FAE22C",
"iX c #FAE22D",
"pX c #FCE32D",
"aX c #F9E62C",
"sX c #F9EA2C",
"dX c #F9EB2C",
"fX c #F9ED2D",
"gX c #F9EE2C",
"hX c #F9EE2D",
"jX c #F9F12B",
"kX c #F9F52B",
"lX c #F9F62B",
"zX c #F8F72B",
"xX c #F9F72B",
"cX c #F9F12D",
"vX c #F9F32D",
"bX c #F9F42C",
"nX c #F9F62C",
"mX c #F7FF2C",
"MX c #F8F92B",
"NX c #F8FA2B",
"BX c #F8FD2B",
"VX c #F8FE2B",
"CX c #F8FF2B",
"ZX c #F9F82C",
"AX c #F8F92C",
"SX c #F8FB2C",
"DX c #F9FB2D",
"FX c #F8FF2C",
"GX c #F8FE2D",
"HX c #FAFF2C",
/* pixels */
"                                                                                                ",
"                                                                                                ",
"                                                                                                ",
"                                                                                                ",
"                                                                                                ",
"                                                                                                ",
"                                              l e                                               ",
"                                                $                                               ",
"                                                $ e                                             ",
"                                                e $ n                                           ",
"                                                  $ $                                           ",
"                                                  e * e                                         ",
"                                                7 P O.$                                         ",
"                                                7 R *.$                                         ",
"                                                * :.m $                                         ",
"                                              h ~ e.$ $                                         ",
"                                            v $ 8.t.$ 7                                         ",
"                                            * O.F.t.$                                           ",
"                                          7 m Z.K.u.$                                           ",
"                                        e $ 3.K.<Xg.$                                           ",
"                                      e $ $ t.&XFXS.Z $                                         ",
"                                      e $ $ u.&XBX].:.$ e                                       ",
"                        e l           $ $ $ u.R.8X.Xm.P $                                       ",
"                        l $           e $ $ u.Z.8XdXK.U $                                       ",
"                          $ e         l $ $ / m.8XdX_.e.*           l                           ",
"                          $ $           $ $ m m.8XdXF.m.s           e                           ",
"                          ~ %.a         n $ m m.8XsXF.:.*         $ $ c                         ",
"                          :.m.i $         $ Z m.5X X_.E 7       a * +.R                         ",
"                        $ @.z.* $ e       $ m R.uX/.u.F         $ P a.F                         ",
"                        A g.*XO.$         h s OXBX-X%.$         $ R &.$                         ",
"                      $ { >X&X7.$         h i .XBXQ.[           $ H Z.H 7                       ",
"                      i k.1X6X7.$       e $ +.wXtXa.$           $ :.K.P 7                       ",
"                      * I.nXDX6.$     h $  .}.mX%Xe.$ e         $ I.=XK 7                       ",
"                      e I.hXnXu.a $ $ $ O.Z.iXBX%Xu.$ $         U W.1XK 7                       ",
"                      * X.,XFX8Xb.2.3.3.Z.OXkXBX&Xe.$ $ $     e 9.tX1XU 7                       ",
"                      7 Z F.tXFXDXcX6X}.OXMXBXBX&Xe.$ $ e     ~ Q.DXhX( 7                       ",
"                        $ E n.wXBXBXBXBXBXBXBXBX%Xj. .s $   { 8.hXmX[.m                         ",
"                          $ E K.wXBXBXBXBXBXBXBXiX/.Q.f.b.[.qXcXSXW.L 7                         ",
"                          e i u.R.kXBXBXBXBXBXBXmXMXkXMXBXBXBXMX.X*.$                           ",
"                          e $ / K.>XBXBXBXBXBXBXmXBXBXBXBXBX2X.X2.e                             ",
"                          e $ / K./.BXBXBXBXBXBXBXBXBXBXMX>XZ.:.*                               ",
"                          e $ ( `.}.BXBXHXHXHXHXHXHXFXFXpX_.l.* $                               ",
"                            e A { | 1.1.1.1.1.1.1.1.1.1.<.] _ 7 *                               ",
"                                                                                                ",
"                                                                                                ",
"                                                                                                ",
"                                                                                                ",
"                                                                                                ",
"                                                                                                ",
"                                                                                                "
};
