/* XPM */
static char *opendoor1654446827[] = {
/* columns rows colors chars-per-pixel */
"38 50 63 1 ",
"  c None",
". c #3A362C",
"X c #3E382A",
"o c #2D3034",
"O c #4C3E23",
"+ c #443B2A",
"@ c #483E29",
"# c #59461E",
"$ c #7A550B",
"% c #7F5808",
"& c #664D1A",
"* c #6E5117",
"= c #765614",
"- c #795712",
"; c #7D5A13",
": c #755619",
"> c #584620",
", c #5C523F",
"< c #6F5520",
"1 c #6B5529",
"2 c #715825",
"3 c #645433",
"4 c #47484A",
"5 c #4D4D4D",
"6 c #534E45",
"7 c #524F4A",
"8 c #575043",
"9 c #585246",
"0 c #57534C",
"q c #5A5448",
"w c #4C4E51",
"e c #4F5154",
"r c #515151",
"t c #575859",
"y c #5C5C5C",
"u c #796F5A",
"i c #656565",
"p c #6C6C6C",
"a c #747474",
"s c #7B7B7B",
"d c #855901",
"f c #8D5F02",
"g c #835B0B",
"h c #835D13",
"j c #8F6001",
"k c #8E620A",
"l c #926201",
"z c #9A6701",
"x c #9D6901",
"c c #916409",
"v c #A36D01",
"b c #A86F00",
"n c #AA7100",
"m c #838383",
"M c #8C8C8C",
"N c #949494",
"B c #9B9B9B",
"V c gray64",
"C c #ACACAC",
"Z c #B2B2B2",
"A c #BABABA",
"S c #C2C2C2",
"D c #CDCDCD",
/* pixels */
"           5554555                    ",
"         5apaMMMpai5                  ",
"       tiVSaNZADaMVmt                 ",
"     4iBAMZpmZCApmNaCMr               ",
"    tpNCCsw57rrrr5tMACaa              ",
"   tNSMssr         yssBSm    ddzzjd   ",
"  tsNBat             isBmNw3gzlvbjdj  ",
" tVVmt                 ytu-gzvfvvjlxdd",
"5msiy                   9gvfzvfvvlxxjj",
"7MZN5                   8fvlzvfvvjxx%%",
"5aSV5                   8fblzvfvvlxxdd",
"5paar                   8fbjzzfvvjxxdd",
"5MNmw                   6fvlzvfvvlxxdd",
"wmSN5                   8lvlzvfvvjxxdd",
"7ipir                   6gnlzvfvvjxxdd",
"5VSBw                   4@clzzfvvjxxdd",
"5MSB5                   4o+$xvfvbjxxdd",
"5Mspr                   4@=$xzfvvjxxdd",
"5iVM5                   6gblzvfvvjxxdd",
"5mAAr                   6lbjzvfvvjxxdd",
"5sNBr                   9fvlzvfvbjxxdd",
"5imsr                   9jvlzzfvvjxxdd",
"5MAsw                   8fvlzvfvvjxxdd",
"5MCBr                   9fvfzvfvbjxxdd",
"5ypMr                   8fbjzvfvblxxdd",
"5mBp5                   9fvlzvfvc%xxdd",
"5NCBr                   9fblzvfv;.*zdd",
"5psar                   6fvjzvfvn>>zdd",
"wamsr                   9fvlzxfv%.kvdd",
"5MCB5                   8fvlzvlg&$#cdd",
"5CCMr                   8jvlzvl=&d#cdd",
"wNsi0                   6gbfzvfv=+kzdd",
"5iVNr                   4+kzzvfvvlzvdd",
"5NZCr                   4o.$zvfvvlzzdd",
"5isAr                   4@;%zvfvvjvzdd",
"4sNar                   6gblzzfvvlzvdd",
"5MAN5                   6lvlzxfvvlxxdd",
"5sVm5                   6fbjzvfvvjxxdd",
"5paa0   ipppassay5yiipy 8jblzvfvvjzxdd",
"5MZNwrraMNNVCBVCMaiimMyy8fvlzxfvbjxxdd",
"5iBMiNNaiyipiiMBBNsatpyiqfvlxzlvvjzvdd",
"5BstpAZCVBVBBNiipipittry8fvlzvfvblxzdd",
"5BZNiNNNNVBBNNMMMMMMs55w9fvlzvfvvjzvdd",
"rMNsrrrrrrrr5rrrrtrr0rrr02hlzzfvvjzzdd",
"                          ,;lvfvvjxxdd",
"                           ,3gfvbjxxdd",
"                            e83gzjxxdd",
"                               01hzzfd",
"                                 r::::",
"                                  eeew"
};
