/* XPM */
static char *backwall1654439011[] = {
/* columns rows colors chars-per-pixel */
"50 50 96 2 ",
"   c #151515",
".  c #181818",
"X  c #191919",
"o  c gray10",
"O  c #1B1B1B",
"+  c gray11",
"@  c #1D1D1D",
"#  c #1E1E1E",
"$  c gray12",
"%  c #202020",
"&  c gray13",
"*  c #222222",
"=  c #232323",
"-  c gray14",
";  c #252525",
":  c gray15",
">  c #272727",
",  c #282828",
"<  c gray16",
"1  c #2A2A2A",
"2  c gray17",
"3  c #2C2C2C",
"4  c #2D2D2D",
"5  c gray18",
"6  c #2F2F2F",
"7  c gray19",
"8  c #313131",
"9  c #323232",
"0  c gray20",
"q  c #343434",
"w  c #353535",
"e  c gray21",
"r  c #373737",
"t  c gray22",
"y  c #393939",
"u  c #3A3A3A",
"i  c gray23",
"p  c #3C3C3C",
"a  c gray24",
"s  c #3E3E3E",
"d  c #3F3F3F",
"f  c gray25",
"g  c #414141",
"h  c gray26",
"j  c #434343",
"k  c #444444",
"l  c gray27",
"z  c #464646",
"x  c gray28",
"c  c #484848",
"v  c #494949",
"b  c gray29",
"n  c #4B4B4B",
"m  c #4C4C4C",
"M  c gray30",
"N  c #4E4E4E",
"B  c gray31",
"V  c #505050",
"C  c #515151",
"Z  c gray32",
"A  c #535353",
"S  c gray33",
"D  c #555555",
"F  c #565656",
"G  c gray34",
"H  c #585858",
"J  c gray35",
"K  c #5A5A5A",
"L  c #5B5B5B",
"P  c gray36",
"I  c #5D5D5D",
"U  c gray37",
"Y  c #5F5F5F",
"T  c #606060",
"R  c gray38",
"E  c #626262",
"W  c gray39",
"Q  c #646464",
"!  c #656565",
"~  c gray40",
"^  c #676767",
"/  c #686868",
"(  c DimGray",
")  c #6A6A6A",
"_  c gray42",
"`  c #6C6C6C",
"'  c #6D6D6D",
"]  c gray43",
"[  c #6F6F6F",
"{  c gray44",
"}  c #717171",
"|  c #727272",
" . c #747474",
".. c gray46",
"X. c #777777",
"o. c gray48",
/* pixels */
"; ; ; ; * ; ; ; 2 * 2 2 ; 2 ; * * X 2 ; ; 5 ; ; 2 ; ; ; ; ; 2 ; 2 * ; ; 2 ; $ X * ; * 5 $ * ; 2 5   ",
"^ G ^ R Z K R ) K K R R I R I I Z $ Z } I R K R R R R I I R ^ R I G K I ^ R x * ^ R K K G I I R R t ",
"^ K N Z Z N Z Z Z N Z Z Z N Z n n * Z ^ N Z Z n N G Z Z Z Z N N N Z N Z Z x g $ I ^ Z G N x Z N G ; ",
"R R N Z G N Z N K Z x N Z Z Z x t ; N ^ G N Z G s n N N Z Z N Z Z Z N Z N s g ; I R n Z N x K K n * ",
"^ Z n n n G G N I G x N Z Z Z x t ; I ^ n Z s q q n G Z Z N Z Z N n G G N x t * ^ I G Z n Z G Z x $ ",
"Z G G N x x N Z Z Z n Z Z N G x s 5 K R x Z n 7 x N Z N N Z Z N x G G Z g q x 2 N Z Z Z n G I Z N 2 ",
"K R Z G K Z n N N Z N Z Z Z Z n x 5 N ^ Z N Z Z Z Z Z Z Z Z G Z n K N N n t g $ Z R N Z x x R G N * ",
"^ Z Z Z G K n N Z Z Z N N Z Z x t 2 I ) N Z Z Z N Z Z N x g n n Z N G N Z n t * I ^ n Z N n G G n $ ",
"R K Z N Z Z Z Z N Z N Z N N G n g ; Z R Z N N N Z Z N Z K G Z N Z N Z G n 7 s * G R N Z N n t Z n $ ",
"K K N Z Z N N Z Z Z Z Z Z N Z x t ; G R Z Z Z G N Z N N G K K G n G Z N n t s * G K Z Z G g 5 N x * ",
"R K s x n t x g n t g s Z x x x s 2 K R n x n s s g x n x s q g x s g g n g q * N K n Z x 5 s N n * ",
"x s 2 7 7 7 s 2 q 5 7 2 7 q 2 5 2 X s t 2 5 q 7 2 q q 2 ; q 7 2 7 5 t ; 2 q 5 * G I Z Z 5 s N Z Z ; ",
"7 t 5 2 5 t t 7 2 7 2 2 7 q 2 7 q 5 t 5 5 5 2 q q 5 5 t t 5 ; 7 t 7 q 5 7 s 7 * R R Z Z 5 g Z Z n $ ",
"} ) I R } ) K ' ^ R 7 I ..' ) ) ^ ^ ) ) ' ^ R ^ ) R K I ) ^ ) } R ) ^ R ) ' ^ ; I R N N g q n N n * ",
"} K Z R } I N R ) I * x ) R I Z K Z K G G G G G G K Z Z G K G G Z K Z G G N s $ K I K n g t q N n ; ",
") G Z Z Z N Z G N g * t ^ K N Z N N Z n G N n N N N N N Z N N Z Z N Z Z N n 5 $ I ^ N N x Z N Z N ; ",
"R R Z Z N N Z Z n t 7 G R I N N G N Z Z Z K N n Z Z Z N G N Z Z N Z Z Z N g s X I ^ n N Z N G N N ; ",
") I n Z Z N G N n g 2 n ' Z s G N Z Z N N G K N N N Z N x x N g Z N Z G N q s 2 K G Z Z N Z Z N N * ",
"^ K n Z Z Z G Z g t ; K o.Z q q s Z Z Z Z N I Z x N G N t q x n N Z N Z N s t * R K Z G G N t N x * ",
"G R N N Z G N Z N q ; K } K x 5 ; x N Z Z Z K N n Z N Z s 7 g Z Z Z Z Z Z x s * G R N Z n 7 7 N n * ",
"Z ^ N N Z Z N Z N g 2 N ' I G s 2 g N Z Z G G n N Z Z G t t n Z G N Z Z n t 7 $ G ^ n x q q n Z N ; ",
"R I Z Z Z N Z Z g t 2 Z ..K Z x s N Z N Z G G N N N G N q s Z N N Z Z Z Z n g ; R R n g n Z Z Z n * ",
"R R N G Z Z Z N g q 5 Z } K Z N Z G Z N N Z Z Z G N n q t N Z N N N Z N N n s $ G K N N G Z N K x * ",
"K R Z N Z Z Z N x t 2 n } K Z Z N Z N N Z Z Z Z N Z n 5 n G N G G N G Z n t q ; K K N G N Z Z N x $ ",
"G R N Z x 7 Z N N g 5 G ' G g x Z x n G x s x n N g s s Z G n t s N N G n q q ; G n s g t s n g x 2 ",
"^ R G Z Z n N Z N q ; N Z s s g 5 s q 5 q t s s t g s 7 7 7 q n 7 t q q t g q $ t t q s g s t 5 5 $ ",
"} K N N Z Z N Z n s $ 2 5 7 q 5 q q 5 5 5 t q * 2 5 5 7 7 7 q 7 q 7 7 7 5 5 5 5 7 7 7 7 5 5 q 7 q X ",
") N Z Z n Z Z G g s 2 N ) ) ' ' ) ^ ' ' R ' ) q K ) I ^ ' ^ ) ' } ' ) ..) G ) ..} ' } ' R ^ } ' I 5 ",
"Z Z N G n n I Z n t 7 K ) K G N K Z Z I R G x 2 x ) I K I Z Z I K G N I K N G G I G G K K K K Z N * ",
"K K N Z Z x Z K n s 2 Z ' I Z Z N Z N N N Z s * N R Z Z Z N Z Z Z N Z N Z G Z Z G Z N N Z Z n Z N ; ",
"} K G N Z N g ^ N t ; G ..I n Z Z N Z Z Z N x 5 g R Z N Z G n N Z N G Z n N N Z x x N Z Z Z N Z n 2 ",
"I ^ N N Z n Z G N t 7 G R Z G N Z G Z Z Z N s * N I n x t n G Z N Z N N Z G Z x q 2 s Z n Z G N G 5 ",
"G R Z Z N x K Z g t 2 Z K G N Z Z Z Z Z Z N n $ g ^ Z n 7 s Z N n n N N N n g 2 5 x Z Z N N Z N n * ",
"K K Z Z Z Z I G G t ; G R K Z Z Z N N Z Z N s ; n ) G N t t n x n x N N x n K n x n N Z Z x x N n * ",
"R R G x Z Z n Z x t 5 Z ^ N Z G Z N G Z N n t 5 s ^ Z Z x s x K R ^ K n I I I R K N Z Z Z n s N n ; ",
"' G Z Z Z Z Z G x s 2 N } K Z N Z Z N Z G Z t * g R K N N K R G Z n K I G n Z N G G G N Z Z x x Z 5 ",
"R G n Z G n N Z n g ; n } G N N N G n n N N g * N R N x n Z N N N N Z n n N Z n x G Z x n N n s x * ",
"K I x x G g t N n g 7 K o.K q q q g t t 7 q t ; Z G G x t g n s 7 s N g q 7 t q s Z n g t q t 7 t $ ",
"N x s g s t g g t t q Z G g t n g s s g g s q * n n g s g s t t x t s s g q t g t g s s s s s x n 2 ",
"2 * ; ; $ * 2 * ; * X ; $ ; * 2 ; X $ 2 2 2 * X * ; 2 $ * ; ; $ ; ; ; $ ; ; * 2 * * ; * ; ; $ 2 7 X ",
"R R R G ^ R R ^ R K G K R R R I I K I R R R I G I I I K R t t K ^ K G K I I I I ^ R I R R K I ^ I q ",
"' K K ^ I Z ^ I I K I R ^ R I K R R K R I Z I ^ R K Z ) R q t ) R G I R I G Z I I I Z I R R ^ K R q ",
"R R N n G Z N Z Z N N N N N n n N Z Z N N q g n N Z Z N n 5 t I G N N n N G Z Z Z G N N Z N N N n * ",
") I Z Z Z n G N G Z Z N x g t t t g g 2 7 5 g Z Z N Z N N 2 s I G Z G Z N Z N N Z g n Z Z N Z Z x * ",
"' Z N Z N G N x s x g q s Z I I I x q $ q n G N Z N N G g ; t ) Z N Z Z Z Z Z G G Z t n G N G N n * ",
"R ^ Z N G N s N Z N Z K I G N Z N K K N x q N n n N Z Z s 2 g ) G Z Z N Z Z N N n s Z n g Z N G N ; ",
"G ) N G n 7 N K K R K N n G G N N G Z K K Z Z g t t N Z N ; s I G N Z Z n g s x x I K I G n Z N n $ ",
"' G N g t G K Z N N Z Z Z N Z Z Z Z N Z Z K Z Z q 7 t N x 7 t I Z Z N x Z R R K R Z Z Z G G Z Z x * ",
"R G x 7 7 N N g n N x N x x x x n n n Z g N N x g n 7 s s 2 s I Z N N x G ) G x N Z x g n N n n g ; ",
"R g t g s g t g t s s s q t s s t q t n q t s g t s 7 g g ; t Z g 7 t g x s q g t g t g x g q q x ; "
};
