/* XPM */
static char *a52c1c7fcaf74be1b4e0880cf8d26e5fH4aRsWRMPX7Y1ICB[] = {
/* columns rows colors chars-per-pixel */
"23 45 228 2 ",
"   c None",
".  c #0B4813",
"X  c #134A1A",
"o  c #0F531A",
"O  c #0F5C1C",
"+  c #0C5316",
"@  c #19571E",
"#  c #14671B",
"$  c #0D7817",
"%  c #157A17",
"&  c #085B27",
"*  c #175B28",
"=  c #035B35",
"-  c #225B25",
";  c #0A6627",
":  c #136D23",
">  c #186728",
",  c #0C7828",
"<  c #177726",
"1  c #016B3C",
"2  c #066537",
"3  c #077539",
"4  c #186136",
"5  c #26652B",
"6  c #256729",
"7  c #257529",
"8  c #296432",
"9  c #2B6C32",
"0  c #2B643A",
"q  c #256739",
"w  c #2A7238",
"e  c #045D43",
"r  c #036749",
"t  c #176449",
"y  c #037840",
"u  c #117F4F",
"i  c #33754B",
"p  c #35794D",
"a  c #32764A",
"s  c #009D0F",
"d  c #0D8A1B",
"f  c #178619",
"g  c #099918",
"h  c #139D1C",
"j  c #1D9E13",
"k  c #19990E",
"l  c #1AA819",
"z  c #18B819",
"x  c #02A317",
"c  c #20AA1B",
"v  c #20A719",
"b  c #16832D",
"n  c #199A28",
"m  c #078735",
"M  c #178A38",
"N  c #05973B",
"B  c #1A9539",
"V  c #099027",
"C  c #218C21",
"Z  c #278834",
"A  c #21983E",
"S  c #219B21",
"D  c #03A529",
"F  c #17A726",
"G  c #07B428",
"H  c #1AB628",
"J  c #04A33C",
"K  c #1AAD37",
"L  c #1BB43C",
"P  c #1ABC38",
"I  c #02B433",
"U  c #21B729",
"Y  c #25A832",
"T  c #29AE30",
"R  c #00CC0D",
"E  c #05C817",
"W  c #18C51A",
"Q  c #0FDB18",
"!  c #10D612",
"~  c #00EF17",
"^  c #1FCC21",
"/  c #1CC328",
"(  c #01D322",
")  c #04CB3C",
"_  c #17C63A",
"`  c #05D737",
"'  c #18D933",
"]  c #10D128",
"[  c #23C42D",
"{  c #22D826",
"}  c #23CB32",
"|  c #21D832",
" . c #02E329",
".. c #03E535",
"X. c #1DE439",
"o. c #03F535",
"O. c #2AE62C",
"+. c #3AF53B",
"@. c #2BEA37",
"#. c #0A8747",
"$. c #169643",
"%. c #069857",
"&. c #0B9049",
"*. c #239B44",
"=. c #358458",
"-. c #218049",
";. c #0DA248",
":. c #15A649",
">. c #16B544",
",. c #09A858",
"<. c #15B956",
"1. c #09B354",
"2. c #29BA44",
"3. c #3CB446",
"4. c #388862",
"5. c #09AB63",
"6. c #0BB666",
"7. c #13BC67",
"8. c #0EBD79",
"9. c #4EB953",
"0. c #5B8A66",
"q. c #639E6C",
"w. c #68A579",
"e. c #63A26C",
"r. c #0ACA41",
"t. c #17C645",
"y. c #07D744",
"u. c #0DC55E",
"i. c #17C55A",
"p. c #29C852",
"a. c #35D356",
"s. c #32CA51",
"d. c #04E649",
"f. c #1CFD48",
"g. c #16E953",
"h. c #08F54A",
"j. c #28F649",
"k. c #2CF65C",
"l. c #34F358",
"z. c #0BC567",
"x. c #1BC965",
"c. c #07D465",
"v. c #1ED866",
"b. c #14C378",
"n. c #15D276",
"m. c #0CDA74",
"M. c #2ACB63",
"N. c #19EC77",
"B. c #13E972",
"V. c #2EF56D",
"C. c #43CA5A",
"Z. c #51D75E",
"A. c #46FC46",
"S. c #62FF58",
"D. c #46C765",
"F. c #54DC70",
"G. c #7BC47C",
"H. c #5AFD71",
"J. c #85FF6D",
"K. c #74BE80",
"L. c #11C98A",
"P. c #14D88E",
"I. c #10CB96",
"U. c #0ED494",
"Y. c #0DD98E",
"T. c #22D683",
"R. c #0DE68D",
"E. c #13F48B",
"W. c #0DE894",
"Q. c #0FF498",
"!. c #3BF388",
"~. c #27F589",
"^. c #13FAA5",
"/. c #27FCA7",
"(. c #2FFDB0",
"). c #74DA97",
"_. c #7BC48E",
"`. c #4BFC8F",
"'. c #73F58F",
"]. c #7DDBA0",
"[. c #47FEBA",
"{. c #52FFAF",
"}. c #62FFA2",
"|. c #67FFB6",
" X c #78FFBD",
".X c #3FFFC1",
"XX c #51FEC6",
"oX c #6AFDC9",
"OX c #7FFED6",
"+X c #81DD81",
"@X c #96FD9D",
"#X c #AAFF93",
"$X c #82DCA5",
"%X c #88FFB5",
"&X c #93F6B0",
"*X c #AAEAAD",
"=X c #AAF0A7",
"-X c #A5FDBB",
";X c #BEFFBC",
":X c #B2E5B3",
">X c #95FEDA",
",X c #8DFED0",
"<X c #BEFEC4",
"1X c #B5FEDC",
"2X c #AFFED2",
"3X c #AEFEE8",
"4X c #B9FEE8",
"5X c #CCE4CF",
"6X c #C6FDC8",
"7X c #D5EBD8",
"8X c #C8FBD7",
"9X c #D5FEDA",
"0X c #D5FED7",
"qX c #CEE6D3",
"wX c #E1FFDE",
"eX c #C9FEE4",
"rX c #D5FDE4",
"tX c #DDFEE6",
"yX c #DFFFF8",
"uX c #DEFEF6",
"iX c #CDFEF1",
"pX c #E5FEE6",
"aX c #E4FFF4",
"sX c #EAFFF5",
"dX c #E5FEFC",
"fX c #EAFEFD",
"gX c #F3FFFD",
"hX c #F2FCF7",
/* pixels */
"                      0.                      ",
"                    hXw.4                     ",
"                  gXgXw.> q                   ",
"                fXgXfXw.> a =.                ",
"                fXfXfXq.> 8 a =.              ",
"            dXfXfXfXaXe.@ - 8 i =.            ",
"          fXfXfXdXaXpXq.X - 8 8 p =.          ",
"        dXfXdXdXfXhXpX0.X 6 9 5 0 i =.        ",
"        fXdXuXaXsXgX7X9.% - 5 9 8 0 i         ",
"      fXdXuXaXaXfX5X+X@XZ.7 - 5 9 8 0 i       ",
"    gXdXuXdXhXhX7Xw.*X;X&XZ.7 - 5 9 0 i p     ",
"  fXgXfXfXhXhXqXJ.*X6X6X-X%XC.6 6 9 9 8 i 0   ",
"4._.*X1XaXgX7X+X:X7X8X6X-X%X}.s.6 5 9 5 * 4 t ",
"2 3 Z 9.J.*Xw.:XwX0X9X6X-X X|.`.T # % b , = t ",
"3 M V h f h ).pXwX7XtX8X2X,X|.{.V.z x D , = t ",
"3 B K U k V $XpXwXrXrXeX1X>X X[.`.l s V 3 = t ",
"3 :.K [ v l $XpXtXrXeX4X3X>XoXXX!.l s D m = e ",
"#.:.K [ v h $X0X9XtXdXiX3X,XoX.X!.k g I m 2 e ",
"m :.L } c n ).0X8XrXyXdX3XOXXXXX!.F G ) m r e ",
"#.<.L } l n ).6X;X<X3X3X>XoX.X(.~.l ( r.m 1 e ",
"&.<.>.} v n ).#X#X@X%X X|.[.(./.~.z ( y.N 1 e ",
"&.<.L } l Y F.J.S.@X'.}.{.(./.^.B.z ( ) N y e ",
"&.i.>.| U n Z.S.S.H.H.`.!.~.E.Q.B.E E ) N 1 e ",
"%.i.t.' z S a.A.A.A.l.k.V.N.E.W.v.W Q ` N y r ",
"%.z._ ' z F a.j.+.+.j.j.g.B.R.W.v.W  ...J y r ",
"%.u.t.' W Y a.O.O.@.@.X.g.m.R.U.v.Q ~ o.J y r ",
",.z.)  .E / s.{ { O.O.' y.m.Y.U.x.Q ~ o.J y r ",
"5.c.r.` E _ s.^ { { | ] i.m.P.I.x.Q o.h.J y r ",
"5.c.r. .R _ p.z ^ ^ { _ i.b.L.I.x.| j.h.J 3 r ",
"5.c.r...R ' p.U W [ H _ i.L.L.L.<.X.k.k.J 1 e ",
"6.c.)  .R X.2.l z z / >.<.b.8.8.p.' f.k.:.1 e ",
"6.B.d.h. .G Y U z H H L <.7.8.T.D.# d K 1.3 e ",
"8.W.u.J , $ % T H l l L >.<.v.D.6 . . + ; ; = ",
"  u > O $ f % C Y l g F :.i.D.w + o + O O O   ",
"    2 , , d d f b T h F t.C.7 + X o # b b     ",
"      &., , g f % C Y L C.w O O o : b A       ",
"        ;.m , d f f v 9.w # : O : M A         ",
"        <.,.m % S S h - X O : < B *.*.        ",
"          z.1.m n F C - X o : B *.*.          ",
"            8.1.B F n > X O b A *.            ",
"                <.>.P > X : M $.              ",
"                6.x.t.> X M $.                ",
"                  n.N.w * $.                  ",
"                    W.a *                     ",
"                      q                       "
};
