/* XPM */
static char *_21da85d13e34722fa62d61d2e29edecv0dp9OUtz1nqjJSX[] = {
/* columns rows colors chars-per-pixel */
"50 50 139 2 ",
"   c None",
".  c #F74E1B",
"X  c #F94F1E",
"o  c #F7541C",
"O  c #FA551B",
"+  c #F6581E",
"@  c #FD5A1C",
"#  c #FE6517",
"$  c #FA6C17",
"%  c #F76718",
"&  c #FA6219",
"*  c #F76D18",
"=  c #FB6A18",
"-  c #FB7517",
";  c #F77814",
":  c #FA7C15",
">  c #FC7018",
",  c #F77A18",
"<  c #EF5E29",
"1  c #F55621",
"2  c #F45B23",
"3  c #F95B22",
"4  c #FC5820",
"5  c #FD5C20",
"6  c #FC5C21",
"7  c #FD5D21",
"8  c #FD5C22",
"9  c #F85E27",
"0  c #FB5C22",
"q  c #F15D29",
"w  c #F25D28",
"e  c #F35C2A",
"r  c #F15F2A",
"t  c #F05F2B",
"y  c #F25F2A",
"u  c #F55D2A",
"i  c #F55F2A",
"p  c #F35F2E",
"a  c #F15E29",
"s  c #F85E2A",
"d  c #EF6029",
"f  c #F76026",
"g  c #F1612B",
"h  c #F0612B",
"j  c #F99F0C",
"k  c #FB9E0F",
"l  c #FA9B0D",
"z  c #F78511",
"x  c #FA8014",
"c  c #FA8115",
"v  c #FB8314",
"b  c #FA8215",
"n  c #FA8315",
"m  c #FA8116",
"M  c #F98217",
"N  c #FB8514",
"B  c #FA8415",
"V  c #FA8416",
"C  c #FB8616",
"Z  c #FA8C13",
"A  c #FB8F13",
"S  c #FA8915",
"D  c #FA8A14",
"F  c #FB8A14",
"G  c #FB8916",
"H  c #FA8C14",
"J  c #FB8C14",
"K  c #FA8D14",
"L  c #FB8C15",
"P  c #FB8D15",
"I  c #FB8E14",
"U  c #FB8F14",
"Y  c #FB8F15",
"T  c #FC8F15",
"R  c #FB8C13",
"E  c #FA9011",
"W  c #FB9013",
"Q  c #FB9113",
"!  c #FB9212",
"~  c #FB9213",
"^  c #FB9313",
"/  c #FB9512",
"(  c #FB9413",
")  c #FB9513",
"_  c #FB9612",
"`  c #FB9613",
"'  c #FB9713",
"]  c #FC9413",
"[  c #FB9014",
"{  c #FA9114",
"}  c #FB9114",
"|  c #FB9214",
" . c #FB9314",
".. c #FC9114",
"X. c #FC9414",
"o. c #FC9614",
"O. c #FB9313",
"+. c #FB9811",
"@. c #FB9A12",
"#. c #FC9812",
"$. c #FB9C10",
"%. c #FD9B12",
"&. c #FBA60C",
"*. c #FBA50F",
"=. c #FBA30E",
"-. c #FBAA0B",
";. c #FBAE0A",
":. c #FBAE0B",
">. c #FBAF0B",
",. c #FCAB0B",
"<. c #FDB707",
"1. c #FBB507",
"2. c #FCBF06",
"3. c #FCBE07",
"4. c #FBB00A",
"5. c #FBB10A",
"6. c #FCB30A",
"7. c #FFBA09",
"8. c #FFBA0A",
"9. c #FEBA08",
"0. c #F9B712",
"q. c #FEC503",
"w. c #FEC702",
"e. c #FEC603",
"r. c #FEC105",
"t. c #FEC504",
"y. c #FDCA03",
"u. c #FECA03",
"i. c #FFCC03",
"p. c #FFC009",
"a. c #FCCD0B",
"s. c #FFD304",
"d. c #FFD903",
"f. c #FED30B",
"g. c #F7CD11",
"h. c #FACC13",
"j. c #FCC318",
"k. c #FFF9DC",
"l. c #FFFCE1",
/* pixels */
"                                                                                                    ",
"                                                                                                    ",
"                                                                                                    ",
"                                                                                                    ",
"                                                                                                    ",
"                                                      2 2                                           ",
"                                                      2 2                                           ",
"                                                    w                                               ",
"                                                    5                                               ",
"                                                    +                                               ",
"                              w                     +                                               ",
"                              u                     +                                               ",
"                                          2 2       @ @ 2                                           ",
"                            g 2           2 @ 8     O @                                             ",
"                            2 +             g @     @ O + g               p                         ",
"                              w               O     @ & @ 2               2                         ",
"                                3             + o O O S - o O                                       ",
"                                                2 # n ..- o @           w                           ",
"                                                1 = ] ! : % @         9 2                           ",
"                                              + + = ] ] ] L @       2 @ 2                           ",
"                                            @ O , P ! ! ] P @       + 2                             ",
"                                          2 @ o n / ! / N $ @     u + 3                             ",
"                                  2 2       8 O : / ! Z $ O 8     @ @ f                             ",
"                                  2 @ 1       o : / ! @ O 2       @ @ w                             ",
"                                  2 @ o       O x /  .n $ 1     f O @ 2   <                         ",
"                                  1 @ o       o : / ! / - 1   2 @ O @ +   +                         ",
"                    2 d           2 @ o       o : / / / - 2   w @ o @ w   +                         ",
"                        w       2 o @ +       + @ * ! ! ] M 1 , : o     8 @                         ",
"                        @ f     o $ = o s     O O % !  .] L - F C O     @ s                         ",
"                        8 @     o C n O @ 1   o O *  .#./ ! ] ] v o     1                           ",
"                          + O o o N : O O o o o : !  .r.:. .! / v O o o 1                           ",
"                          + @ + : P N : j Z : : Z ! / q.4.P !  .L : m $ 1                           ",
"                          + O &  .! +.*.3.-. .X.!  .! 6.4.j X. .! X./ : o                           ",
"                          + O & ! P &.u./  .! !  .! ! ! :.q./ !  .! / , O @                         ",
"                          1 $ F ! ! &.u./  . .] 7.7. .P :.q./ P j 3.+.S n + O w                     ",
"                          o F ,./ Z &.u.4.$.L ..0.0.] P :.t./ =.6.i.6.=.Z @ @ 3                     ",
"                        @ X l r.#./ -.i.i.:...%.    #.] 6.q./ <.i.a.i.6.L + O o                     ",
"                        @ o : =.u.t.u.s.i.,.#.f.    u.u.u.r.X.p.f.  a.7.P @ @ 2                     ",
"                        @ O - #.,.t.f.  i.t.6.      s.i.i.i.3.j.    f.,.% + @ +                     ",
"                        3 o > S ..r.g.  h.f.a.      i.i.i.a.f.      f.l . O @ w                     ",
"                          2 O @  .r.a.    h.a.  h.f.i.s.g.        a.i.l o @                         ",
"                            2 @ % 1.s.g.            f.          f.s.z # 1                           ",
"                              f O z 6.i.            h.        f.u.j # 1 w                           ",
"                                o X : t.d.h.                i.i.&.. 3 g                             ",
"                                  2 @ $ t.s.a.    k.l.    s.d.R @ @                                 ",
"                                                                                                    ",
"                                                                                                    ",
"                                                                                                    ",
"                                                                                                    ",
"                                                                                                    "
};
