/* XPM */
static char *_a19413c36be4635dfa710c91342d185CBVxcN5kwdbnBmAK[] = {
/* columns rows colors chars-per-pixel */
"46 50 140 2 ",
"   c None",
".  c #E62A07",
"X  c #E22709",
"o  c #E42C0A",
"O  c #EB2E0A",
"+  c #E53407",
"@  c #E83607",
"#  c #E6330C",
"$  c #EA320B",
"%  c #E73909",
"&  c #EA3C09",
"*  c #F2320A",
"=  c #FE330B",
"-  c #E32F11",
";  c #E53412",
":  c #EB3511",
">  c #E63910",
",  c #EC3C14",
"<  c #ED3D18",
"1  c #EA4007",
"2  c #EF4807",
"3  c #EC430A",
"4  c #EF4B08",
"5  c #F14D09",
"6  c #EF5009",
"7  c #F25407",
"8  c #F55D06",
"9  c #F85A06",
"0  c #F25608",
"q  c #F45C08",
"w  c #FF5A08",
"e  c #ED4412",
"r  c #EF441B",
"t  c #F0471E",
"y  c #FA471C",
"u  c #FA491B",
"i  c #F86405",
"p  c #FA6A05",
"a  c #F6640A",
"s  c #FB6508",
"d  c #FA6A08",
"f  c #FD7407",
"g  c #FF7D07",
"h  c #FD7508",
"j  c #FE7B09",
"k  c #FB671E",
"l  c #F56D19",
"z  c #FE7412",
"x  c #FF7912",
"c  c #FF7519",
"v  c #FE7B1A",
"b  c #F44F27",
"n  c #FA4E23",
"m  c #F55325",
"M  c #FD5B2C",
"N  c #FC6425",
"B  c #FF6D26",
"V  c #FF612F",
"C  c #FF6C2C",
"Z  c #F47523",
"A  c #FF7126",
"S  c #FE6434",
"D  c #FF6638",
"F  c #FF8309",
"G  c #FF8A0B",
"H  c #FF9207",
"J  c #FF9209",
"K  c #FF9C0B",
"L  c #FE8312",
"P  c #FE8C12",
"I  c #FF8D1A",
"U  c #FF9917",
"Y  c #FF9A1C",
"T  c #FFA30C",
"R  c #FFA90C",
"E  c #FEB60E",
"W  c #FFBE0E",
"Q  c #FFA614",
"!  c #FFA813",
"~  c #FFA31F",
"^  c #F99120",
"/  c #FF9823",
"(  c #FFA522",
")  c #FFAC21",
"_  c #FEAF2C",
"`  c #FFAE3E",
"'  c #FFC00F",
"]  c #FFC017",
"[  c #FFCC10",
"{  c #FFCC1F",
"}  c #FFD411",
"|  c #FFDB11",
" . c #FFDC19",
".. c #FFE513",
"X. c #FFEB13",
"o. c #FFE913",
"O. c #FFE914",
"+. c #FFEC14",
"@. c #FFED14",
"#. c #FFE61A",
"$. c #FFEB1C",
"%. c #FFF213",
"&. c #FFF511",
"*. c #FFF413",
"=. c #FFF214",
"-. c #FFF216",
";. c #FFF514",
":. c #FFF515",
">. c #FFF615",
",. c #FFF214",
"<. c #FFF419",
"1. c #FFCE22",
"2. c #FFD72A",
"3. c #FFDD2C",
"4. c #FFDA2D",
"5. c #FFC837",
"6. c #FFCD3E",
"7. c #FFD138",
"8. c #FFE720",
"9. c #FFED22",
"0. c #FFE032",
"q. c #FFE736",
"w. c #FFEB30",
"e. c #FFE63C",
"r. c #FFFD3A",
"t. c #FFA840",
"y. c #FFB24D",
"u. c #FFBA4C",
"i. c #FFB753",
"p. c #FFB855",
"a. c #FFCE42",
"s. c #FFC940",
"d. c #FFCB4A",
"f. c #FFD642",
"g. c #FFD64A",
"h. c #FCDC48",
"j. c #FFEF4F",
"k. c #FFFF46",
"l. c #FFFD41",
"z. c #FFF256",
/* pixels */
"                                                                                            ",
"                                                                                            ",
"                                                                                            ",
"                                                                                            ",
"                                                                                            ",
"                                                                                            ",
"                                                                                            ",
"                                                                                            ",
"                                : $                                                         ",
"                                  # #                                                       ",
"                                  ; n , #                                                   ",
"                                  o V V $ $                                                 ",
"                                  ; z g.L w -                                               ",
"                                  o & h.e.f o o                                             ",
"                                  ; # F  .1.9 % o                                           ",
"                                    # w Y 3.J q % O                                         ",
"                                    O $ J *.1.I 2 o                                         ",
"                                  # . > _ *.{ l $           : =                             ",
"                                # O 0 a ~ >.W 4 o             *                             ",
"                              ; O 0 F } | >.W 4 o           $ o o                           ",
"                                : s F o.%.o.E 4 .           u t o                           ",
"                              O o 9 F ..[ F q o #       o o q A ,                           ",
"                              O % 1 j } F g 0 . :   # 3 @ 7 g k ,                           ",
"                              O q I ! } g g 0 o o o $ g ! Y F 5 -     O ;                   ",
"                      #       O q ` 9...T j d & o o + P k.f.i & ; o * #                     ",
"                    ; y $   # . Z u.8.%.o.R j 6 X o o P q.( 7 X O O o                       ",
"                    : M # o O X l / ..-.*.[ h d q % a W K i % X o o                         ",
"                    > M M n o o + p J T X...2.3.K 1 j | p + X t , #                         ",
"                    # : r M + + o + 1 h T o.<.r.d.v F } d o + m , o                         ",
"                        S N h f 4 + d g h R %.-.f.y.P } F f f B r o                         ",
"                        b 3 g P L f h g h T %.%.6.i.Q } v j c C , o                         ",
"                    ;   ; % p 5.6.T K h h T =.@.s.i.$. .D B d a % ;                         ",
"                    ; ; : . $ I z.l.@.R h T *.%.4.7.#.( S v 0 . o   : #                     ",
"                        $ % 0 a ~ z.l.@.R F [ %.%.%.X.` v d & O O $ :                       ",
"                          $ a F j Y w.>.X.] } *.@.@.l.j.F 0 O ;                             ",
"                            % 3 1 p J T @.>.%.X.-.X.) Y g 9 O                               ",
"                              ; O $ d G ..%.%.X.@.@.G j p + $                               ",
"                                : O d h K o.-.-.-.@.G p * o                                 ",
"                                  > $ & h K o.%.-.| F $ $                                   ",
"                                    # $ d g T @...G s #                                     ",
"                                      > e x x ] ! x , ;                                     ",
"                                                                                            ",
"                                                                                            ",
"                                                                                            ",
"                                                                                            ",
"                                                                                            ",
"                                                                                            ",
"                                                                                            ",
"                                                                                            ",
"                                                                                            "
};
