/* XPM */
static char *_001468566__1_a_removebg_preview1654350914[] = {
/* columns rows colors chars-per-pixel */
"21 50 183 2 ",
"   c None",
".  c #374E67",
"X  c #394F67",
"o  c #394F69",
"O  c #335069",
"+  c #37506A",
"@  c #37516A",
"#  c #3A516A",
"$  c #3B526A",
"%  c #38516D",
"&  c #38526C",
"*  c #3B536E",
"=  c #3C546C",
"-  c #3F556E",
";  c #3D5774",
":  c #3E5A76",
">  c #7E5048",
",  c #66555B",
"<  c #7E6D59",
"1  c #7E6E58",
"2  c #41566D",
"3  c #405977",
"4  c #455B74",
"5  c #445E7B",
"6  c #455E7B",
"7  c #455F7B",
"8  c #475E7A",
"9  c #435D7C",
"0  c #405E7D",
"q  c #415F7F",
"w  c #445E7C",
"e  c #455E7C",
"r  c #455F7C",
"t  c #455F7D",
"y  c #465F7D",
"u  c #655861",
"i  c #605D6D",
"p  c #695F6B",
"a  c #46607C",
"s  c #46607D",
"d  c #47607D",
"f  c #47617D",
"g  c #47607E",
"h  c #47617E",
"j  c #4B637D",
"k  c #48617E",
"l  c #4D607C",
"z  c #4D637C",
"x  c #4A647D",
"c  c #4B647D",
"v  c #4A647F",
"b  c #4C647D",
"n  c #4D647E",
"m  c #4D657E",
"M  c #4C647F",
"N  c #4C657F",
"B  c #4D657F",
"V  c #4E647E",
"C  c #6C6370",
"Z  c #686677",
"A  c #80543D",
"S  c #A4543C",
"D  c #BB6031",
"F  c #845B57",
"G  c #825A59",
"H  c #A35740",
"J  c #A15742",
"K  c #B35C47",
"L  c #8B674C",
"P  c #806D4C",
"I  c #8D6F4E",
"U  c #8A704D",
"Y  c #8B704D",
"T  c #8A704E",
"R  c #8D714D",
"E  c #8D714F",
"W  c #8E714F",
"Q  c #856F51",
"!  c #8E7150",
"~  c #8E7555",
"^  c #B16644",
"/  c #B16049",
"(  c #B2674F",
")  c #B4664F",
"_  c #BC664E",
"`  c #B16350",
"'  c #B7685A",
"]  c #AA755D",
"[  c #BD715F",
"{  c #8B6566",
"}  c #8F6A6B",
"|  c #936868",
" . c #926A69",
".. c #8C6F72",
"X. c #A36C62",
"o. c #A87764",
"O. c #C15D40",
"+. c #C76142",
"@. c #C86243",
"#. c #C0684F",
"$. c #CB6B4F",
"%. c #CF7052",
"&. c #C9745F",
"*. c #D57357",
"=. c #CB7661",
"-. c #BA853C",
";. c #DE823A",
":. c #D7A33E",
">. c #F3A33B",
",. c #F6A739",
"<. c #F7AE39",
"1. c #F3AF3F",
"2. c #F8B236",
"3. c #FBB339",
"4. c #F7BF3D",
"5. c #F9BA38",
"6. c #F9BF3B",
"7. c #F8BD3C",
"8. c #F8BE3E",
"9. c #FFC33B",
"0. c #FEC03C",
"q. c #FFC33D",
"w. c #A0825F",
"e. c #B2926D",
"r. c #B6916D",
"t. c #CA874C",
"y. c #CD934E",
"u. c #DE9842",
"i. c #CB965A",
"p. c #D09550",
"a. c #EEA346",
"s. c #F0A140",
"d. c #F1A043",
"f. c #F1A246",
"g. c #F1A347",
"h. c #F2A346",
"j. c #F0A447",
"k. c #F3A446",
"l. c #F6A847",
"z. c #F3A548",
"x. c #F5BF47",
"c. c #D78D78",
"v. c #DE9476",
"b. c #F39D62",
"n. c #E9A76F",
"m. c #E9A57E",
"M. c #F4C047",
"N. c #F8C040",
"B. c #F9C044",
"V. c #F4C14B",
"C. c #F6C24C",
"Z. c #F8C74E",
"A. c #456280",
"S. c #4C6581",
"D. c #4E6780",
"F. c #4E6883",
"G. c #4F6885",
"H. c #506580",
"J. c #516780",
"K. c #566A84",
"L. c #617796",
"P. c #687892",
"I. c #607598",
"U. c #9BA6B5",
"Y. c #9BA7B6",
"T. c #9CA8B6",
"R. c #A9B2BC",
"E. c #C29D8C",
"W. c #C3A481",
"Q. c #CCAE8D",
"!. c #CDB295",
"~. c #D3B495",
"^. c #D5B5A1",
"/. c #D8B6A2",
"(. c #F7C59D",
"). c #F1CAAA",
"_. c #F3CDAB",
"`. c #F3CCAC",
"'. c #F3CFAD",
"]. c #F0D1B5",
"[. c #F1D2B5",
"{. c #F4D7BB",
"}. c #A9B4C0",
/* pixels */
"                                          ",
"                  d.1.B.M.                ",
"                  ,.q.q.7.                ",
"                s.<.4.7.0.x.              ",
"                >.3.2.5.9.N.              ",
"          l.a.h.u.p.t.y.-.:.C.V.Z.        ",
"                  ~.^./.E.                ",
"                  ).{.[.[.                ",
"                  `.Q.A L                 ",
"    }.U.T.U.R.    `.W.e.w.                ",
"      P.I.L.      _.!.P Q                 ",
"        r.i.z.  b.'.(.    j.j.z.j.        ",
"              D o.v.] ^ ;.        m.n.    ",
"              ' i O.{ }           K       ",
"              J C $.G F *.                ",
"              [ p +.| | @.      )         ",
"              / Z X., > %.      &.        ",
"              ..S.: q u         _         ",
"  S           O r r 7 A.      (           ",
"  =.          = r r a g                   ",
"    J         = r y r y                   ",
"      c.      # y A.y y                   ",
"        `     2 q r M S.                  ",
"          #.  2 ; r G.J.                  ",
"              X @ a g k                   ",
"              o % g 9 a                   ",
"              # @ a 9 g                   ",
"              X @ a 9 g                   ",
"              X # r r g                   ",
"              . % 3 : r                   ",
"              4       8                   ",
"              B       B                   ",
"              B       B                   ",
"              B       B                   ",
"              B       c                   ",
"              c       c                   ",
"              J.      x                   ",
"              B       j                   ",
"              k       M                   ",
"              B       K.                  ",
"              B       H.                  ",
"              B       B                   ",
"              B       k                   ",
"              B       B                   ",
"              <       <                   ",
"              R       U                   ",
"              !       U                   ",
"              !       U                   ",
"              U ~     R !                 ",
"                                          "
};
